<svg xmlns="http://www.w3.org/2000/svg" viewBox="0 0 480 130" font-family="Arial, Helvetica, sans-serif">
  <g transform="translate(6, 5) scale(3)">
    <path d="M20 3.2 C12.16 3.2 5.8 9.56 5.8 17.4 C5.8 20.9 7.6 24.6 10.2 28 C12.8 31.4 16.1 34.4 18.35 36.45 C19.3 37.3 20.7 37.3 21.65 36.45 C23.9 34.4 27.2 31.4 29.8 28 C32.4 24.6 34.2 20.9 34.2 17.4 C34.2 9.56 27.84 3.2 20 3.2 Z" fill="#2563EB"/>
    <path fill-rule="evenodd" d="M20 8.9 A8.4 8.4 0 1 0 28.4 17.3 L28.4 16.3 L20.9 16.3 L20.9 19.3 L24.9 19.3 A5.2 5.2 0 1 1 25.15 12.9 L27.85 10.5 A8.38 8.38 0 0 0 20 8.9 Z" fill="#FFFFFF"/>
  </g>

  <line x1="145" y1="14" x2="145" y2="108" stroke="#E2E8F0" stroke-width="2"/>

  <text x="168" y="58" font-size="40" font-weight="800" fill="#0F172A">GeoMap<tspan fill="#2563EB">AI</tspan></text>
  <text x="169" y="80" font-size="13" font-weight="700" letter-spacing="2.5" fill="#475569">GEOSPATIAL INTELLIGENCE</text>

  <line x1="169" y1="96" x2="185" y2="96" stroke="#2563EB" stroke-width="2"/>
  <text x="192" y="101" font-size="14" fill="#475569">By <tspan font-weight="700" fill="#2563EB">GeoCoderz</tspan></text>
</svg>
